# xmcd
#
# Track frame offsets:
#	150
#	12285
#	30493
#	50958
#	70393
#	85347
#	109395
#	130626
#	150296
#	185900
#	213032
#
# Disc length: 3309 seconds
#
# Revision: 0
# Processed by: cddbd v1.4PL0 Copyright (c) Steve Scherf et al.
# Submitted via: dBpowerAMP V4.0
#
DISCID=930ceb0b
DTITLE=Rob Perna - Guitar School - (live at Vincent's)
DYEAR=1900
DGENRE=Blues
TTITLE0=Hideaway
TTITLE1=I Gotta Find My Baby
TTITLE2=Early In The Morning
TTITLE3=Born Under a Bad Sign
TTITLE4=T-Bone Shuffle
TTITLE5=All Your Love I Miss Lovin'
TTITLE6=Killing Floor
TTITLE7=Lookin' Good
TTITLE8=Sex Machine
TTITLE9=Mystery Train
TTITLE10=Caledonia
EXTD=
EXTT0=
EXTT1=
EXTT2=
EXTT3=
EXTT4=
EXTT5=
EXTT6=
EXTT7=
EXTT8=
EXTT9=
EXTT10=
PLAYORDER=
